<svg width="32" height="32" viewBox="0 0 32 32" fill="none" xmlns="http://www.w3.org/2000/svg">
<circle cx="16" cy="16" r="15.5" fill="black" stroke="black"/>
<path d="M8.20508 9.02588V23.7951" stroke="white" stroke-width="1.3" stroke-linecap="round"/>
<path d="M24.6152 9.02588V23.7951" stroke="white" stroke-width="1.3" stroke-linecap="round"/>
<path d="M15.1796 23.7951C14.3591 22.9746 12.3078 21.3336 10.6667 21.3336C10.6667 19.3643 10.6667 12.3079 10.6667 9.02588C11.7608 9.16263 14.4411 9.84639 16.4103 11.4874C17.7232 10.1746 20.7864 9.29938 22.1539 9.02588V21.3336C20.9232 21.6071 18.2975 22.4823 17.6411 23.7951" stroke="white" stroke-width="1.3" stroke-linecap="round"/>
<path d="M13.374 18.3079H12.4248L13.8955 14.0658H15.0264L16.4912 18.3079H15.5479L15.2314 17.3294H13.6963L13.374 18.3079ZM13.9189 16.6439H15.0088L14.4756 15.0208H14.4463L13.9189 16.6439ZM16.8517 18.3079V14.0658H18.5157C19.4825 14.0658 20.0333 14.6107 20.0333 15.4486C20.0333 16.0286 19.7667 16.4505 19.2833 16.6556L20.1857 18.3079H19.213L18.4044 16.8021H17.7306V18.3079H16.8517ZM17.7306 16.0872H18.3517C18.8732 16.0872 19.1251 15.8704 19.1251 15.4486C19.1251 15.0208 18.8732 14.7865 18.3517 14.7865H17.7306V16.0872Z" fill="white"/>
</svg>
