<svg width="33" height="32" viewBox="0 0 33 32" fill="none" xmlns="http://www.w3.org/2000/svg">
<circle cx="16.2568" cy="16" r="15.5" fill="black" stroke="black"/>
<path d="M16.3877 9.85385C18.03 9.85385 19.672 9.8584 20.9297 9.86752C21.5586 9.87209 22.0902 9.87829 22.4775 9.8851C22.6715 9.88851 22.8274 9.89198 22.9404 9.89584L23.0938 9.9017L23.0996 9.90268C23.7441 10.0035 24.2826 10.4428 24.5137 11.0306L24.5557 11.1497C24.5813 11.2341 24.6047 11.2976 24.6172 11.8568C24.6299 12.4274 24.6309 13.4629 24.6309 15.4808C24.6309 16.7916 24.6264 17.849 24.6172 18.5941C24.6126 18.9668 24.6071 19.2596 24.6006 19.4662C24.5973 19.5697 24.5932 19.6484 24.5898 19.7035C24.5883 19.7292 24.5867 19.745 24.5859 19.7533C24.538 19.9552 24.4211 20.1927 24.25 20.4154C24.1195 20.5851 23.9715 20.7285 23.8262 20.8324L23.6846 20.9212C23.5528 20.9913 23.4754 21.0285 23.3906 21.056C23.3073 21.083 23.1976 21.1067 23.0088 21.1244C22.6137 21.1613 21.9631 21.1664 20.6562 21.1664H17.9746L17.8457 21.471L17.0547 23.3421C16.8358 23.8527 16.6291 24.3247 16.4727 24.6732C16.4512 24.7209 16.4295 24.7654 16.4102 24.808C16.4038 24.7942 16.3963 24.7805 16.3896 24.766C16.3162 24.6068 16.2275 24.4099 16.124 24.1732L15.7666 23.3412L14.9756 21.471L14.8467 21.1664H12.1602C11.4808 21.1664 10.8675 21.1611 10.4062 21.1527C10.1754 21.1485 9.98449 21.1438 9.84375 21.138L9.63672 21.1263L9.63379 21.1253L9.52637 21.0999C9.411 21.0663 9.2738 21.0098 9.13379 20.9359C8.99392 20.862 8.87002 20.7804 8.77637 20.7035L8.69336 20.6283C8.49723 20.432 8.29868 20.0875 8.21387 19.8236L8.18457 19.7162L8.18359 19.7113L8.16992 19.4447C8.16328 19.2549 8.15756 18.9858 8.15332 18.6322C8.14484 17.9252 8.1416 16.8906 8.1416 15.4964C8.1416 13.746 8.14404 12.7227 8.1543 12.1068C8.16493 11.4687 8.18495 11.3182 8.19922 11.2621L8.19824 11.2611C8.37333 10.5944 8.90538 10.0802 9.54395 9.92807L9.67383 9.90268L9.67773 9.9017C9.665 9.90382 9.70095 9.90034 9.83301 9.89584C9.94616 9.89199 10.102 9.88851 10.2959 9.8851C10.6837 9.87829 11.2164 9.87209 11.8457 9.86752C13.1039 9.8584 14.7456 9.85385 16.3877 9.85385ZM12.9551 13.4535C12.9551 13.6714 12.9566 13.8485 12.9736 13.9691C12.9809 14.0204 13.0007 14.1494 13.0869 14.2689C13.1385 14.3404 13.2109 14.4061 13.3057 14.4486C13.329 14.459 13.3521 14.4665 13.374 14.473L13.4238 14.516L13.4434 14.5355V14.931C13.3681 14.7767 13.269 14.6297 13.167 14.5052C13.0631 14.3785 12.9338 14.2475 12.791 14.1449L12.6436 14.0531L12.6396 14.0511L12.5176 13.9925C12.1463 13.832 11.7127 13.7828 11.3164 13.8665V12.5677H9.24023L9.24219 13.0697L9.25195 15.2337V15.2357L9.2666 17.3949L9.26953 17.8773L9.75293 17.891L10.2793 17.9046V17.9056C10.4027 17.9093 10.5053 17.9124 10.5859 17.9124C10.6596 17.9125 10.7465 17.9104 10.8262 17.8968C10.8544 17.892 10.9009 17.8801 10.9561 17.8587C11.4525 18.0997 12.0549 18.0514 12.5674 17.8109L12.5684 17.8119C12.9297 17.6469 13.2574 17.324 13.4434 16.9828V17.9164H15.5273L15.5234 17.4115L15.5195 17.0023C15.7294 17.3239 16.0399 17.6243 16.3516 17.7855V17.7865C16.9136 18.077 17.6479 18.0999 18.2549 17.8753L18.2539 17.8744C18.4798 17.7922 18.7072 17.6391 18.8906 17.4818C19.0549 17.3408 19.2184 17.1635 19.3369 16.9769C19.3539 17.015 19.3726 17.0524 19.3926 17.0892C19.5539 17.3858 19.7908 17.5952 20.0762 17.7552L20.2012 17.8206C20.311 17.8744 20.4179 17.9183 20.5273 17.9535V19.558L21.0469 19.5374L21.5498 19.5179L21.5488 19.5169C21.7628 19.5097 21.9371 19.502 22.0928 19.4691C22.2675 19.4321 22.3973 19.3693 22.5312 19.2982L22.5322 19.2992L22.5439 19.2923C22.7331 19.1852 22.9804 18.9866 23.1201 18.8011L23.1211 18.8021C23.199 18.6992 23.2831 18.5812 23.3496 18.43C23.4169 18.2768 23.456 18.1138 23.4805 17.9232C23.5264 17.5642 23.5303 17.0168 23.5303 16.0872V13.8871H21.6172C21.4062 13.8272 21.1829 13.8082 20.9551 13.8314L20.7529 13.8626H20.75C20.2599 13.9638 19.8451 14.2008 19.5596 14.5882C19.4779 14.6991 19.4109 14.8187 19.3555 14.9447C19.039 14.4258 18.4877 14.027 17.8154 13.8958H17.8164C16.9337 13.723 15.9793 14.1168 15.501 14.8714L15.4941 14.0648L15.4932 13.9505L15.4424 13.849L15.2812 13.5208V13.5199L15.1621 13.3099C15.0323 13.1084 14.8692 12.9359 14.666 12.7972C14.4662 12.6608 14.242 12.5675 13.998 12.5052L13.7471 12.4525H13.7451L13.5352 12.4183L12.9551 12.3236V13.4535Z" fill="white" stroke="white"/>
<path d="M21.1394 16.5122C20.817 16.3754 20.69 15.9358 20.8805 15.623C21.1446 15.1884 21.76 15.2273 21.9651 15.6913C22.1165 16.0384 21.9651 16.3948 21.5988 16.5318C21.4178 16.6001 21.3298 16.5953 21.1394 16.5122ZM11.1198 16.4585C10.7583 16.2092 10.7972 15.623 11.1881 15.4374C11.7254 15.1834 12.2385 15.7159 11.9649 16.2436C11.8281 16.5122 11.3639 16.6295 11.1198 16.4585ZM17.0847 16.4879C17.0119 16.4443 16.9488 16.3863 16.8992 16.3175C16.8497 16.2487 16.8147 16.1705 16.7964 16.0877C16.7781 16.0049 16.7769 15.9193 16.7929 15.836C16.8089 15.7527 16.8417 15.6736 16.8893 15.6034C17.0309 15.3935 17.1823 15.3154 17.456 15.3154C17.6367 15.3154 17.6953 15.3398 17.8566 15.5057C18.0178 15.6671 18.047 15.7257 18.047 15.9064C18.047 16.4291 17.5147 16.7515 17.0847 16.4879Z" fill="white"/>
</svg>
