<svg width="187" height="60" viewBox="0 0 187 60" fill="none" xmlns="http://www.w3.org/2000/svg">
<path d="M14.6022 3.51843L2.18574 4.16915L0.861759 14.966L2.86551 17.1399L24.7606 15.9925L28.6812 17.6212L28.5853 15.792L72.4864 13.4913C74.9808 13.3605 76.1654 12.6314 76.589 10.108C76.589 10.108 77.2408 4.51556 77.3841 3.00731L74.8554 0.360692L70.4763 0.590187L70.3478 1.3195C69.7235 1.0743 68.8134 0.677337 67.0951 0.767392C65.4876 0.851637 64.1892 1.5311 63.9178 1.65648L63.8801 0.935882L56.5078 1.32225L55.5301 2.81862L54.9557 1.40359L44.5902 1.94682L44.056 3.41996C43.5135 2.61466 42.9273 2.03397 41.4307 2.11241L36.3865 2.37676C36.3757 2.52554 36.2638 3.21694 36.2638 3.21694C35.8554 2.84926 35.0007 2.44939 34.2247 2.49006L28.4044 2.79508L28.1823 4.91886C27.7001 4.20303 26.3401 2.8588 24.0809 3.02167C23.0277 3.07686 22.415 3.05339 20.8949 3.74446L20.9767 3.18435L16.4869 3.41966C16.4742 3.53149 16.4079 4.03521 16.4079 4.03521C16.0637 3.83092 15.5445 3.46904 14.6022 3.51843Z" fill="#69A4FF"/>
<path d="M65.2458 8.2079C65.2744 8.75356 65.6802 9.00587 66.4631 8.96484C67.2539 8.9234 67.6364 8.65752 67.6107 8.16722C67.5971 7.90625 67.4514 7.69978 67.1739 7.5478C66.8963 7.39582 66.5608 7.27463 66.1675 7.18422C65.7822 7.0934 65.392 6.98697 64.997 6.86494C64.6096 6.73458 64.2733 6.52223 63.9883 6.22791C63.7028 5.92568 63.5479 5.54127 63.5234 5.07469C63.4194 3.08976 64.6445 2.03036 67.1988 1.89649C68.132 1.84759 68.8451 1.98863 69.3383 2.31963C69.8389 2.64231 70.1056 3.11601 70.1383 3.74075C70.1504 3.97009 70.1303 4.19317 70.0783 4.41001C70.0337 4.61852 69.982 4.76793 69.9233 4.85823L69.8359 5.00555L67.7363 5.11559C67.9007 4.92458 67.9757 4.69069 67.9612 4.41391C67.9343 3.89988 67.5847 3.66048 66.9125 3.69571C66.0663 3.74005 65.6573 4.0311 65.6855 4.56885C65.6996 4.83773 65.8452 5.0442 66.1224 5.18827C66.3996 5.33234 66.7304 5.44188 67.115 5.51689C67.5071 5.58357 67.9004 5.67397 68.2949 5.7881C68.6894 5.90223 69.0294 6.11041 69.3149 6.41265C69.5999 6.70697 69.7555 7.10324 69.7816 7.60145C69.8343 8.60578 69.5729 9.36885 68.9976 9.89065C68.4219 10.4045 67.5092 10.6942 66.2598 10.7597C65.0103 10.8252 64.1446 10.6485 63.6627 10.2297C63.3053 9.91539 63.1112 9.46563 63.0805 8.88043C63.0689 8.659 63.08 8.41656 63.1138 8.15311L63.1394 7.96145L65.2746 7.84955L65.2584 7.99314C65.2467 8.07305 65.2425 8.14463 65.2458 8.2079Z" fill="white"/>
<path d="M62.8116 2.20954L61.7646 10.8286L59.6175 10.9411L60.6764 2.32144L62.8116 2.20954Z" fill="white"/>
<path d="M59.7454 2.37083L56.6259 6.8521L58.6865 10.9905L56.2547 11.118L54.9492 8.45061L53.135 11.2815L50.7032 11.4089L53.6248 7.00939L51.7621 2.78921L54.1939 2.66177L55.3239 5.38592L57.3136 2.49827L59.7454 2.37083Z" fill="white"/>
<path d="M48.0742 11.5464L48.0478 9.68026L46.0668 9.78408L45.5831 11.6769L43.3175 11.7956L45.9185 3.09511L49.833 2.88996L50.328 11.4282L48.0742 11.5464ZM47.249 5.10696L46.4698 8.16906L48.0238 8.08762L47.9964 5.0678L47.249 5.10696Z" fill="white"/>
<path d="M40.5657 3.37651C41.4672 3.32926 42.1181 3.49339 42.5184 3.8689C42.8189 4.15449 42.9811 4.52662 43.0051 4.98529C43.0134 5.14345 43.0063 5.31035 42.9838 5.48599L42.8662 6.41994C42.7983 6.93894 42.6539 7.36282 42.4333 7.69158C42.2205 8.01992 41.9753 8.25877 41.6977 8.40813L42.9587 11.8153L40.5625 11.9409L39.3989 8.80218L38.6634 8.84073L38.3443 12.0571L36.0667 12.1765L37.1256 3.55679L40.5657 3.37651ZM39.9153 5.26617L39.0257 5.31279L38.8254 7.39297L39.6558 7.34946C40.0749 7.32749 40.3702 7.21289 40.5418 7.00566C40.7129 6.79051 40.7897 6.51687 40.7723 6.18473C40.7387 5.54417 40.4531 5.23799 39.9153 5.26617Z" fill="white"/>
<path d="M32.7083 9.74649L31.2967 9.82047L30.9702 12.4425L28.8351 12.5544L29.8939 3.93472L33.5119 3.74511C34.4055 3.69828 35.0529 3.87053 35.454 4.26185C35.7474 4.56367 35.9069 4.95973 35.9326 5.45004C35.9413 5.61611 35.9346 5.79091 35.9125 5.97446L35.7455 7.32732C35.6613 7.98991 35.3417 8.54985 34.7868 9.00714C34.2315 9.45652 33.5387 9.70297 32.7083 9.74649ZM32.8616 5.63477L31.794 5.69072L31.52 7.95319L32.5758 7.89786C33.2242 7.86387 33.5847 7.55554 33.6573 6.97286L33.7148 6.48216C33.7269 6.41016 33.7298 6.31485 33.7236 6.19623C33.7174 6.07761 33.6513 5.95023 33.5252 5.8141C33.3991 5.67797 33.1779 5.6182 32.8616 5.63477Z" fill="white"/>
<path d="M22.4672 13.0553C21.3363 13.1145 20.5405 12.9104 20.0799 12.4429C19.7612 12.1107 19.5854 11.6322 19.5527 11.0075C19.5386 10.7386 19.5511 10.4485 19.5903 10.1372L19.9337 7.3834C20.1847 5.36399 21.4173 4.29627 23.6316 4.18023C24.549 4.13215 25.2552 4.29338 25.7504 4.66392C26.2452 5.02655 26.5105 5.54792 26.5461 6.22801C26.5627 6.54434 26.5318 6.86315 26.4535 7.18445C26.3827 7.49742 26.3077 7.73131 26.2286 7.88613L26.1105 8.13021L24.0109 8.24024C24.2561 7.92606 24.3642 7.49218 24.3352 6.93862C24.3199 6.64602 24.2328 6.42062 24.0738 6.26242C23.9144 6.09632 23.6884 6.02093 23.3958 6.03627C22.5971 6.07813 22.1458 6.54585 22.042 7.43943L21.7524 9.85735C21.7236 10.065 21.7144 10.2677 21.7248 10.4654C21.7522 10.9874 22.0782 11.232 22.7029 11.1992C23.4542 11.1598 23.8828 10.7131 23.9887 9.85909L26.1239 9.74719L26.0826 10.0943C25.8629 11.9535 24.6577 12.9405 22.4672 13.0553Z" fill="white"/>
<path d="M19.4498 4.48298L18.4028 13.1021L16.2557 13.2146L17.3146 4.59488L19.4498 4.48298Z" fill="white"/>
<path d="M13.0003 10.7797L11.5887 10.8537L11.2622 13.4757L9.12705 13.5876L10.1859 4.96792L13.8039 4.77831C14.6975 4.73148 15.3449 4.90373 15.746 5.29506C16.0394 5.59688 16.1989 5.99294 16.2246 6.48324C16.2333 6.64931 16.2266 6.82412 16.2045 7.00766L16.0375 8.36052C15.9533 9.02311 15.6337 9.58305 15.0788 10.0403C14.5235 10.4897 13.8307 10.7362 13.0003 10.7797ZM13.1536 6.66798L12.086 6.72393L11.812 8.98639L12.8677 8.93106C13.5162 8.89708 13.8767 8.58874 13.9493 8.00607L14.0068 7.51537C14.0189 7.44336 14.0218 7.34805 14.0156 7.22943C14.0094 7.11081 13.9433 6.98343 13.8172 6.8473C13.6911 6.71117 13.4699 6.6514 13.1536 6.66798Z" fill="white"/>
<path d="M8.20856 13.6359L2.25375 13.948L3.31265 5.32827L9.26745 5.0162L9.03229 6.8841L5.21268 7.08428L5.02377 8.69997L8.17911 8.5346L7.94395 10.4025L4.78861 10.5679L4.6241 11.9682L8.44372 11.768L8.20856 13.6359Z" fill="white"/>
<path d="M72.6895 7.39445L71.1324 7.47606L71.6775 1.74945L73.6679 1.64513L72.6895 7.39445ZM70.533 9.70483C70.509 9.24651 70.6008 8.90778 70.8085 8.68866C71.0158 8.46236 71.3575 8.33674 71.8336 8.31179C72.4893 8.27743 72.831 8.52521 72.8588 9.05514C72.8824 9.5063 72.7865 9.84165 72.571 10.0612C72.3633 10.2803 72.0214 10.4024 71.5453 10.4273C70.8975 10.4613 70.56 10.2204 70.533 9.70483Z" fill="white"/>
<path d="M160.857 32.6893C160.833 30.8622 161.573 29.3117 163.076 28.0376C164.603 26.7394 166.571 26.0904 168.981 26.0904C171.391 26.0904 173.36 26.7394 174.887 28.0376C176.414 29.3117 177.177 30.8622 177.177 32.6893C177.177 34.5403 176.414 36.1029 174.887 37.377C173.36 38.6511 171.391 39.2881 168.981 39.2881C166.571 39.2881 164.615 38.6511 163.112 37.377C161.632 36.1029 160.881 34.5403 160.857 32.6893ZM164.794 32.6893C164.794 33.5787 165.152 34.348 165.868 34.9971C166.607 35.6221 167.645 35.9346 168.981 35.9346C170.317 35.9346 171.355 35.6221 172.095 34.9971C172.859 34.348 173.24 33.5787 173.24 32.6893C173.24 31.7998 172.859 31.0425 172.095 30.4175C171.355 29.7684 170.317 29.4439 168.981 29.4439C167.645 29.4439 166.607 29.7684 165.868 30.4175C165.152 31.0425 164.794 31.7998 164.794 32.6893ZM170.449 43.8316V48.5915H166.512V43.8316H158.387V40.442H168.659C170.043 40.442 171.868 40.406 174.135 40.3338C176.402 40.2617 178.692 39.9973 181.007 39.5405V42.9301C178.883 43.3869 176.688 43.6513 174.421 43.7234C172.966 43.7715 171.642 43.8076 170.449 43.8316ZM181.973 51.8007V48.4833H174.242V45.1298H181.973V24.4316H185.874V51.8007H181.973ZM186.053 58.7602H166.476V49.4208H170.449V55.3706H186.053V58.7602Z" fill="white"/>
<path d="M141.665 29.6242H135.151C133.003 29.6242 131.023 29.1073 129.21 28.0736L130.391 25.261C132.586 25.9101 134.339 26.2346 135.652 26.2346H141.665V29.6242ZM145.673 34.384H136.725C135.342 34.5764 134.328 35.0211 133.683 35.7182C132.681 36.8 132.18 37.8818 132.18 38.9636C132.18 39.9973 132.526 40.8627 133.218 41.5599C133.934 42.257 134.769 42.6056 135.723 42.6056C136.821 42.6056 137.716 42.269 138.408 41.5959C139.123 40.8988 139.481 40.0213 139.481 38.9636C139.481 38.6992 139.41 38.3626 139.267 37.9539C139.123 37.5453 138.825 37.1606 138.372 36.8L141.163 34.8528C141.951 35.5019 142.488 36.163 142.774 36.8361C143.084 37.5092 143.239 38.2063 143.239 38.9275C143.239 40.8747 142.523 42.5335 141.092 43.9037C139.66 45.274 137.871 45.9591 135.723 45.9591C133.648 45.9591 131.894 45.262 130.462 43.8677C129.054 42.4493 128.351 40.8026 128.351 38.9275C128.351 37.3409 128.947 35.8264 130.14 34.384H126.132V31.1387H145.673V34.384ZM157.126 37.5933H151.614V46.3918H147.713V24.4316H151.614V33.9874H157.126V37.5933ZM151.256 59.4814H147.355V50.8271H132.717V47.4376H151.256V59.4814Z" fill="white"/>
<path d="M112.449 39.829C112.139 41.5358 111.364 43.0383 110.123 44.3364C108.453 46.0433 106.353 46.8967 103.824 46.8967C101.271 46.8967 99.171 46.0433 97.5247 44.3364C95.8783 42.6296 95.0552 40.5502 95.0552 38.0982C95.0552 35.6942 95.8783 33.6388 97.5247 31.932C99.171 30.2011 101.271 29.3357 103.824 29.3357C106.353 29.3357 108.453 30.1891 110.123 31.8959C111.364 33.2181 112.139 34.7206 112.449 36.4034H118.14V24.4316H122.041V57.8587H118.14V39.829H112.449ZM108.655 38.0982C108.655 36.6798 108.19 35.4298 107.26 34.348C106.353 33.2422 105.208 32.6892 103.824 32.6892C102.44 32.6892 101.283 33.2422 100.352 34.348C99.4454 35.4298 98.9921 36.6798 98.9921 38.0982C98.9921 39.5646 99.4454 40.8387 100.352 41.9205C101.259 43.0022 102.416 43.5431 103.824 43.5431C105.208 43.5431 106.353 43.0022 107.26 41.9205C108.19 40.8387 108.655 39.5646 108.655 38.0982Z" fill="white"/>
<path d="M72.6413 39.2881C73.9775 39.2881 75.0392 38.8314 75.8266 37.9179C76.6379 37.0044 77.0435 35.9466 77.0435 34.7446C77.0435 33.5427 76.6379 32.4849 75.8266 31.5714C75.0392 30.6579 73.9775 30.2011 72.6413 30.2011C71.329 30.2011 70.2792 30.6579 69.4918 31.5714C68.7044 32.4849 68.3107 33.5427 68.3107 34.7446C68.3107 35.9466 68.7044 37.0044 69.4918 37.9179C70.2792 38.8314 71.329 39.2881 72.6413 39.2881ZM64.3738 34.7446C64.3738 32.6051 65.1492 30.7541 66.7001 29.1915C68.251 27.6289 70.2314 26.8476 72.6413 26.8476C75.075 26.8476 77.0793 27.6289 78.654 29.1915C78.6779 29.2155 78.6898 29.2396 78.6898 29.2636H87.1363V24.4316H91.0017V45.1658H87.1363V40.6944H78.2246C76.7214 41.9926 74.8603 42.6417 72.6413 42.6417C70.2314 42.6417 68.251 41.8604 66.7001 40.2978C65.1492 38.7352 64.3738 36.8842 64.3738 34.7446ZM80.6941 32.6532C80.885 33.3263 80.9804 34.0234 80.9804 34.7446C80.9804 35.6581 80.8372 36.5116 80.5509 37.3049H87.1363V32.6532H80.6941ZM90.7511 52.2335C90.7511 54.2288 89.9757 55.9476 88.4248 57.39C86.8739 58.8564 84.7861 59.5896 82.1615 59.5896C79.5846 59.5896 77.5207 58.8564 75.9698 57.39C74.4189 55.9476 73.6434 54.2288 73.6434 52.2335C73.6434 50.2382 74.4189 48.5193 75.9698 47.077C77.5207 45.6105 79.5846 44.8773 82.1615 44.8773C84.7622 44.8773 86.8381 45.6105 88.389 47.077C89.9637 48.5193 90.7511 50.2382 90.7511 52.2335ZM86.8142 52.2335C86.8142 51.1757 86.4086 50.2502 85.5973 49.4569C84.81 48.6636 83.6647 48.2669 82.1615 48.2669C80.6822 48.2669 79.5488 48.6636 78.7614 49.4569C77.974 50.2502 77.5803 51.1757 77.5803 52.2335C77.5803 53.2912 77.974 54.2167 78.7614 55.01C79.5488 55.8033 80.6822 56.2 82.1615 56.2C83.6647 56.2 84.81 55.8033 85.5973 55.01C86.4086 54.2167 86.8142 53.2912 86.8142 52.2335Z" fill="white"/>
<path d="M53.2223 42.5335H33.7524V39.1439H37.3672V37.3409C37.3672 36.5236 37.3315 35.6461 37.2599 34.7086C37.2122 33.771 36.9258 32.8695 36.4009 32.0041L39.9799 30.9945C40.5764 32.0041 40.9224 33.1099 41.0178 34.3119C41.1371 35.4899 41.1968 36.4995 41.1968 37.3409V39.1439H45.6706V30.2372H34.2177V26.8476H52.4349V30.2372H49.3927V39.1439H53.2223V42.5335ZM56.2644 45.274V24.4316H60.1656V45.274H56.2644ZM59.8435 59.4814H55.9423V49.6732H40.9105V46.2837H59.8435V59.4814Z" fill="white"/>
<path d="M16.5883 39.6848C16.302 41.5599 15.5265 43.1585 14.2619 44.4807C12.6394 46.1635 10.671 47.0048 8.35654 47.0048C6.06597 47.0048 4.10944 46.1635 2.48695 44.4807C0.864466 42.7979 0.0532227 40.6704 0.0532227 38.0982C0.0532227 35.5259 0.852536 33.3984 2.45116 31.7156C4.07365 30.0329 6.04211 29.1915 8.35654 29.1915C10.6948 29.1915 12.6752 30.0329 14.2977 31.7156C15.5146 32.9897 16.2662 34.5163 16.5525 36.2952H19.6662V25.1528H23.4242V55.6952H19.6662V39.6848H16.5883ZM12.7945 38.0982C12.7945 36.4635 12.365 35.1293 11.5061 34.0956C10.6471 33.0619 9.59726 32.545 8.35654 32.545C7.13967 32.545 6.10176 33.0619 5.2428 34.0956C4.38383 35.1293 3.95435 36.4635 3.95435 38.0982C3.95435 39.7329 4.38383 41.0671 5.2428 42.1008C6.10176 43.1345 7.13967 43.6513 8.35654 43.6513C9.5734 43.6513 10.6113 43.1345 11.4703 42.1008C12.3531 41.0671 12.7945 39.7329 12.7945 38.0982ZM29.7948 57.8587H26.0011V24.4316H29.7948V57.8587Z" fill="white"/>
</svg>
