<svg width="33" height="32" viewBox="0 0 33 32" fill="none" xmlns="http://www.w3.org/2000/svg">
<circle cx="16.1289" cy="16" r="15.5" fill="black" stroke="black"/>
<path d="M9.9751 18.4616V10.2565C9.9751 9.84622 10.2213 9.02571 11.2059 9.02571C12.1905 9.02571 19.0007 9.02571 22.2828 9.02571V20.9231H11.6161C11.0691 20.9231 9.9751 21.2514 9.9751 22.5642C9.9751 23.877 11.0691 24.2052 11.6161 24.2052H22.693" stroke="white" stroke-width="1.3" stroke-linecap="round"/>
<path d="M12.9431 17.0002V12.7581H13.8962V13.4768H13.9509C14.1228 12.9924 14.5525 12.7034 15.115 12.7034C15.6931 12.7034 16.0993 12.9924 16.2634 13.4768H16.3103C16.4978 13.0081 16.9665 12.7034 17.5837 12.7034C18.3572 12.7034 18.904 13.2034 18.904 14.1487V17.0002H17.9118V14.3049C17.9118 13.7737 17.5915 13.5393 17.1853 13.5393C16.6931 13.5393 16.4118 13.8752 16.4118 14.3518V17.0002H15.4431V14.2659C15.4431 13.8284 15.1462 13.5393 14.7243 13.5393C14.2947 13.5393 13.9431 13.8909 13.9431 14.4221V17.0002H12.9431Z" fill="white"/>
</svg>
